<?xml version="1.0" encoding="UTF-8"?> <svg xmlns="http://www.w3.org/2000/svg" viewBox="0 0 135.13 60"><defs><style>.cls-1{fill:#0072ce;}</style></defs><title>VS-logo-2020-140x60</title><g id="Layer_2" data-name="Layer 2"><g id="Layer_1-2" data-name="Layer 1"><path d="M22.56,23.88h3.35l2.55,15.28L36.4,23.88h3.49L29.73,43.26H25.91Z"></path><path d="M53,43.26H49.68L49,38.72H41.29L39,43.26H35.48L45.64,23.88h4ZM42.73,35.87h5.76l-1.39-8.5Z"></path><path d="M58.22,23.88h8c3.88,0,5.62,1.83,5.46,5-.14,3.74-1.94,6.06-4.79,7l2.55,7.34H66l-2.38-6.9H59.33l-1.22,6.9H54.82Zm1.61,9.61H64.2c1.91,0,3.82-.89,4-4,.16-1.82-.72-2.71-2.6-2.71H61Z"></path><path d="M78.36,29.92,76,43.26H72.72l3.4-19.38h3.07l6.23,13.34,2.36-13.34h3.29L87.66,43.26H84.59Z"></path><path d="M95.37,23.88h3.29l-3.4,19.38H92Z"></path><path d="M108.7,35.34l-3.32-.61c-3.07-.58-4.24-2.24-4.24-4.34,0-3.41,2.33-6.79,8.09-6.79,4.48,0,7,2,6.25,6.23h-3.29c.41-2.35-.78-3.35-3.27-3.35s-4.29,1-4.29,3.21c0,1,.64,1.75,2.08,2l3.32.61c3.18.61,4.23,2.27,4.23,4.27,0,3.71-2.52,6.94-8.13,6.94-4.49,0-7.12-2-6.37-6.22h3.29c-.41,2.35.86,3.35,3.35,3.35s4.38-1,4.38-3.33C110.78,36.39,110.17,35.62,108.7,35.34Z"></path><path d="M129.87,35h-8.36l-1.44,8.25h-3.29l3.4-19.38h3.29L122,32.13h8.36l1.46-8.25h3.3l-3.41,19.38h-3.29Z"></path><path class="cls-1" d="M12.5,13.37A10,10,0,1,0,18.49.6,10,10,0,0,0,12.5,13.37Z"></path><path class="cls-1" d="M4.44,30.36a7.2,7.2,0,1,0,9.82-2.73A7.21,7.21,0,0,0,4.44,30.36Z"></path><path class="cls-1" d="M.08,17.89A4.17,4.17,0,1,0,5,14.63,4.19,4.19,0,0,0,.08,17.89Z"></path><path d="M28.8,54.92l-2.13-.38c-2-.36-3.14-1.46-3.14-3.31,0-2.39,1.65-3.59,4.44-3.59s4.43,1.22,4.43,3.64v.22h-2v-.22c0-1.24-.84-1.87-2.39-1.87s-2.35.55-2.35,1.68c0,.88.62,1.41,1.55,1.58l2.13.38c2,.38,3.14,1.47,3.14,3.29C32.44,58.8,30.74,60,28,60s-4.48-1.22-4.48-3.64v-.22h2v.22c0,1.24.89,1.85,2.44,1.85s2.38-.51,2.38-1.71C30.34,55.61,29.72,55.09,28.8,54.92Z"></path><path d="M47.11,55.66c0,2.83-1.83,4.34-4.74,4.34s-4.7-1.51-4.7-4.34V52c0-2.82,1.84-4.33,4.74-4.33s4.7,1.51,4.7,4.33Zm-2-3.69a2.39,2.39,0,0,0-2.66-2.56A2.41,2.41,0,0,0,39.71,52v3.69a2.38,2.38,0,0,0,2.66,2.55,2.39,2.39,0,0,0,2.7-2.55Z"></path><path d="M52.6,47.81h7.73v1.77H54.65v3.78h4.82v1.76H54.65v4.71h-2Z"></path><path d="M63.9,47.81h9.39v1.77H69.61V59.83h-2V49.58H63.9Z"></path><path d="M76.79,47.81h2.09l2.2,9.41,2.26-9.41h2l2.23,9.41,2.21-9.41h2l-3.07,12h-2.3l-2.13-8.29-2.13,8.29h-2.3Z"></path><path d="M105.33,59.83h-2.21l-1-2.82H97.43l-.94,2.82h-2l4.19-12h2.49ZM98,55.25h3.64L99.8,50Z"></path><path d="M109.88,47.81h4.94c2.4,0,4,1.15,4,3.86,0,2-.8,3.11-2.16,3.61l2.28,4.55h-2.35l-2.06-4.28h-2.59v4.28h-2Zm2,6h2.83c1.19,0,1.94-.59,1.94-2.12s-.75-2.09-1.94-2.09h-2.83Z"></path><path d="M124.12,47.81h8.07v1.77h-6v3.35h5.16V54.7h-5.16V58h6v1.79h-8.07Z"></path></g></g></svg> 