<?xml version="1.0" encoding="UTF-8" standalone="no"?>
<!DOCTYPE svg PUBLIC "-//W3C//DTD SVG 1.1//EN"
 "http://www.w3.org/Graphics/SVG/1.1/DTD/svg11.dtd">
<!-- Generated by graphviz version 2.38.0 (20140413.2041)
 -->
<!-- Title: varnishtest Pages: 1 -->
<svg width="309pt" height="44pt"
 viewBox="0.00 0.00 309.00 44.00" xmlns="http://www.w3.org/2000/svg" xmlns:xlink="http://www.w3.org/1999/xlink">
<g id="graph0" class="graph" transform="scale(1 1) rotate(0) translate(4 40)">
<title>varnishtest</title>
<polygon fill="white" stroke="none" points="-4,4 -4,-40 305,-40 305,4 -4,4"/>
<!-- client -->
<g id="node1" class="node"><title>client</title>
<polygon fill="none" stroke="red" points="66,-36 0,-36 0,-0 66,-0 66,-36"/>
<text text-anchor="middle" x="33" y="-14.3" font-family="Times,serif" font-size="14.00">Client c1</text>
</g>
<!-- varnish -->
<g id="node2" class="node"><title>varnish</title>
<polygon fill="none" stroke="purple" points="197,-36 102,-36 102,-0 197,-0 197,-36"/>
<text text-anchor="middle" x="149.5" y="-14.3" font-family="Times,serif" font-size="14.00">Varnishtest v1</text>
</g>
<!-- client&#45;&gt;varnish -->
<g id="edge1" class="edge"><title>client&#45;&gt;varnish</title>
<path fill="none" stroke="red" d="M66.1993,-11.8607C74.0913,-11.4504 82.7743,-11.2468 91.4512,-11.25"/>
<polygon fill="red" stroke="red" points="91.5528,-14.7511 101.586,-11.3488 91.6211,-7.75143 91.5528,-14.7511"/>
</g>
<!-- varnish&#45;&gt;client -->
<g id="edge2" class="edge"><title>varnish&#45;&gt;client</title>
<path fill="none" stroke="purple" d="M101.586,-24.6512C93.2224,-24.8126 84.5538,-24.7762 76.3272,-24.5419"/>
<polygon fill="purple" stroke="purple" points="76.3305,-21.0394 66.1993,-24.1393 76.0524,-28.0339 76.3305,-21.0394"/>
</g>
<!-- server -->
<g id="node3" class="node"><title>server</title>
<polygon fill="none" stroke="blue" points="301,-36 233,-36 233,-0 301,-0 301,-36"/>
<text text-anchor="middle" x="267" y="-14.3" font-family="Times,serif" font-size="14.00">Server s1</text>
</g>
<!-- varnish&#45;&gt;server -->
<g id="edge3" class="edge"><title>varnish&#45;&gt;server</title>
<path fill="none" stroke="purple" d="M197.145,-11.3622C205.509,-11.1913 214.196,-11.2157 222.469,-11.4352"/>
<polygon fill="purple" stroke="purple" points="222.545,-14.9405 232.669,-11.8178 222.807,-7.94537 222.545,-14.9405"/>
</g>
<!-- server&#45;&gt;varnish -->
<g id="edge4" class="edge"><title>server&#45;&gt;varnish</title>
<path fill="none" stroke="blue" d="M232.669,-24.1822C224.706,-24.5752 215.983,-24.7642 207.29,-24.7492"/>
<polygon fill="blue" stroke="blue" points="207.183,-21.2479 197.145,-24.6378 207.106,-28.2475 207.183,-21.2479"/>
</g>
</g>
</svg>
